<svg xmlns="http://www.w3.org/2000/svg" viewBox="0 0 200 200" width="200" height="200">
  <defs>
    <linearGradient id="bg" x1="0" y1="0" x2="1" y2="1">
      <stop offset="0%" stop-color="#f59e0b" stop-opacity="0.4" />
      <stop offset="100%" stop-color="#33210a" stop-opacity="1" />
    </linearGradient>
    <radialGradient id="glow" cx="0.5" cy="0.5" r="0.55">
      <stop offset="0%" stop-color="#fbbf24" stop-opacity="0.45" />
      <stop offset="100%" stop-color="#fbbf24" stop-opacity="0" />
    </radialGradient>
  </defs>
  <rect width="200" height="200" rx="14" fill="url(#bg)" />
  <rect width="200" height="200" rx="14" fill="url(#glow)" />
  <g>
    <animateTransform attributeName="transform" attributeType="XML" type="translate"
      values="0 -6; 0 6; 0 -6" keyTimes="0;0.5;1"
      calcMode="spline" keySplines="0.45 0 0.55 1; 0.45 0 0.55 1"
      dur="3.26s" begin="-0.86s" repeatCount="indefinite" />
    <g transform="rotate(-18 100 100)">
    <rect x="34" y="102" width="120" height="6" rx="2" fill="#fef3c7" />
    <polygon points="154,80 180,105 154,130" fill="#f59e0b" />
    <polygon points="154,80 165,72 168,90 158,92" fill="#f59e0b" />
    <polygon points="154,130 165,138 168,120 158,118" fill="#f59e0b" />
    <polygon points="158,94 170,105 158,116" fill="#fbbf24" />
    <rect x="138" y="100" width="16" height="10" fill="#33210a" opacity="0.55" />
    <line x1="142" y1="98" x2="142" y2="112" stroke="#fbbf24" stroke-width="1.5" />
    <line x1="148" y1="98" x2="148" y2="112" stroke="#fbbf24" stroke-width="1.5" />
    </g>
  </g>
</svg>